<svg width="20" height="20" viewBox="0 0 20 20" fill="none" xmlns="http://www.w3.org/2000/svg">
<path d="M10 1.66666C5.40835 1.66666 1.66669 5.40832 1.66669 9.99999C1.66669 14.5917 5.40835 18.3333 10 18.3333C14.5917 18.3333 18.3334 14.5917 18.3334 9.99999C18.3334 5.40832 14.5917 1.66666 10 1.66666ZM13.625 12.975C13.5084 13.175 13.3 13.2833 13.0834 13.2833C12.975 13.2833 12.8667 13.2583 12.7667 13.1917L10.1834 11.65C9.54169 11.2667 9.06669 10.425 9.06669 9.68332V6.26666C9.06669 5.92499 9.35002 5.64166 9.69169 5.64166C10.0334 5.64166 10.3167 5.92499 10.3167 6.26666V9.68332C10.3167 9.98332 10.5667 10.425 10.825 10.575L13.4084 12.1167C13.7084 12.2917 13.8084 12.675 13.625 12.975Z" fill="#A0AAB8"/>
</svg>
