<svg width="14" height="14" viewBox="0 0 14 14" fill="none" xmlns="http://www.w3.org/2000/svg">
<path d="M7 1.16666V5.24999L8.16667 4.08332" stroke="#767E8C" stroke-width="0.875" stroke-linecap="round" stroke-linejoin="round"/>
<path d="M7.00004 5.25001L5.83337 4.08334" stroke="#767E8C" stroke-width="0.875" stroke-linecap="round" stroke-linejoin="round"/>
<path d="M1.15503 7.58334H3.72753C3.9492 7.58334 4.14753 7.70584 4.2467 7.90418L4.9292 9.26918C5.12753 9.66584 5.53003 9.91668 5.97336 9.91668H8.03253C8.47586 9.91668 8.87836 9.66584 9.0767 9.26918L9.7592 7.90418C9.85836 7.70584 10.0625 7.58334 10.2784 7.58334H12.8217" stroke="#767E8C" stroke-width="0.875" stroke-linecap="round" stroke-linejoin="round"/>
<path d="M4.08329 2.40918C2.01829 2.71251 1.16663 3.92585 1.16663 6.41668V8.75001C1.16663 11.6667 2.33329 12.8333 5.24996 12.8333H8.74996C11.6666 12.8333 12.8333 11.6667 12.8333 8.75001V6.41668C12.8333 3.92585 11.9816 2.71251 9.91663 2.40918" stroke="#767E8C" stroke-width="0.875" stroke-linecap="round" stroke-linejoin="round"/>
</svg>
