<svg width="20" height="20" viewBox="0 0 20 20" fill="none" xmlns="http://www.w3.org/2000/svg">
<path d="M15.0167 10.275L14 9.25832C13.7584 9.04999 13.6167 8.74166 13.6084 8.39999C13.5917 8.02499 13.7417 7.64999 14.0167 7.37499L15.0167 6.37499C15.8834 5.50832 16.2084 4.67499 15.9334 4.01666C15.6667 3.36666 14.8417 3.00832 13.625 3.00832H4.91669V2.29166C4.91669 1.94999 4.63335 1.66666 4.29169 1.66666C3.95002 1.66666 3.66669 1.94999 3.66669 2.29166V17.7083C3.66669 18.05 3.95002 18.3333 4.29169 18.3333C4.63335 18.3333 4.91669 18.05 4.91669 17.7083V13.6417H13.625C14.825 13.6417 15.6334 13.275 15.9084 12.6167C16.1834 11.9583 15.8667 11.1333 15.0167 10.275Z" fill="#A0AAB8"/>
</svg>
