<svg width="28" height="28" viewBox="0 0 28 28" fill="none" xmlns="http://www.w3.org/2000/svg">
<path fill-rule="evenodd" clip-rule="evenodd" d="M8.5519 2.33347H19.4369C23.4036 2.33347 25.6669 4.57347 25.6669 8.5518V19.4485C25.6669 23.4035 23.4152 25.6668 19.4486 25.6668H8.5519C4.57356 25.6668 2.33356 23.4035 2.33356 19.4485V8.5518C2.33356 4.57347 4.57356 2.33347 8.5519 2.33347ZM14.9569 14.9685H18.2702C18.8069 14.9568 19.2386 14.5251 19.2386 13.9885C19.2386 13.4518 18.8069 13.0201 18.2702 13.0201H14.9569V9.73013C14.9569 9.19347 14.5252 8.7618 13.9886 8.7618C13.4519 8.7618 13.0202 9.19347 13.0202 9.73013V13.0201H9.71857C9.4619 13.0201 9.2169 13.1251 9.03023 13.3001C8.85523 13.4868 8.75023 13.7306 8.75023 13.9885C8.75023 14.5251 9.1819 14.9568 9.71857 14.9685H13.0202V18.2701C13.0202 18.8068 13.4519 19.2385 13.9886 19.2385C14.5252 19.2385 14.9569 18.8068 14.9569 18.2701V14.9685Z" fill="#24A19C"/>
</svg>
