<svg width="24" height="25" viewBox="0 0 24 25" fill="none" xmlns="http://www.w3.org/2000/svg">
<path fill-rule="evenodd" clip-rule="evenodd" d="M20.4023 14.0801C20.7599 14.2701 21.0359 14.5701 21.23 14.8701C21.6082 15.4901 21.5775 16.2501 21.2096 16.9201L20.4942 18.1201C20.1161 18.7601 19.411 19.1601 18.6854 19.1601C18.3277 19.1601 17.9291 19.0601 17.6021 18.8601C17.3364 18.6901 17.0298 18.6301 16.7028 18.6301C15.691 18.6301 14.8428 19.4601 14.8121 20.4501C14.8121 21.6001 13.8719 22.5001 12.6967 22.5001H11.3068C10.1214 22.5001 9.18116 21.6001 9.18116 20.4501C9.16072 19.4601 8.3125 18.6301 7.30076 18.6301C6.96351 18.6301 6.65693 18.6901 6.40144 18.8601C6.07441 19.0601 5.66563 19.1601 5.31816 19.1601C4.58235 19.1601 3.8772 18.7601 3.49908 18.1201L2.79393 16.9201C2.4158 16.2701 2.39536 15.4901 2.77349 14.8701C2.937 14.5701 3.24359 14.2701 3.59106 14.0801C3.8772 13.9401 4.06116 13.7101 4.23489 13.4401C4.74587 12.5801 4.43928 11.4501 3.57062 10.9401C2.55888 10.3701 2.23185 9.1001 2.81437 8.1101L3.49908 6.9301C4.09181 5.9401 5.35904 5.5901 6.381 6.1701C7.2701 6.6501 8.42491 6.3301 8.94611 5.4801C9.10962 5.2001 9.2016 4.9001 9.18116 4.6001C9.16072 4.2101 9.27314 3.8401 9.46731 3.5401C9.84543 2.9201 10.5301 2.5201 11.2762 2.5001H12.7171C13.4734 2.5001 14.1581 2.9201 14.5362 3.5401C14.7202 3.8401 14.8428 4.2101 14.8121 4.6001C14.7917 4.9001 14.8837 5.2001 15.0472 5.4801C15.5684 6.3301 16.7232 6.6501 17.6225 6.1701C18.6343 5.5901 19.9117 5.9401 20.4942 6.9301L21.1789 8.1101C21.7717 9.1001 21.4447 10.3701 20.4227 10.9401C19.554 11.4501 19.2474 12.5801 19.7686 13.4401C19.9322 13.7101 20.1161 13.9401 20.4023 14.0801ZM9.10962 12.5101C9.10962 14.0801 10.4075 15.3301 12.012 15.3301C13.6165 15.3301 14.8837 14.0801 14.8837 12.5101C14.8837 10.9401 13.6165 9.6801 12.012 9.6801C10.4075 9.6801 9.10962 10.9401 9.10962 12.5101Z" fill="#767E8C"/>
</svg>
